<?xml version="1.0" encoding="UTF-8" standalone="no"?>
<svg
   xmlns:dc="http://purl.org/dc/elements/1.1/"
   xmlns:cc="http://creativecommons.org/ns#"
   xmlns:rdf="http://www.w3.org/1999/02/22-rdf-syntax-ns#"
   xmlns:svg="http://www.w3.org/2000/svg"
   xmlns="http://www.w3.org/2000/svg"
   xmlns:xlink="http://www.w3.org/1999/xlink"
   xmlns:sodipodi="http://sodipodi.sourceforge.net/DTD/sodipodi-0.dtd"
   xmlns:inkscape="http://www.inkscape.org/namespaces/inkscape"
   inkscape:export-ydpi="223"
   inkscape:export-xdpi="223"
   inkscape:export-filename="K:\Service\Recensement\Logos\logo_service_mairie_vertical_transparent.png"
   sodipodi:docname="logo_service_mairie_vertical_transparent.svg"
   inkscape:version="1.0 (4035a4fb49, 2020-05-01)"
   id="svg1028"
   version="1.1"
   viewBox="0 0 210 297"
   height="297mm"
   width="210mm">
  <defs
     id="defs1022">
    <linearGradient
       id="linearGradient1245"
       inkscape:collect="always">
      <stop
         id="stop1241"
         offset="0"
         style="stop-color:#d06516;stop-opacity:1" />
      <stop
         id="stop1243"
         offset="1"
         style="stop-color:#c4006a;stop-opacity:1" />
    </linearGradient>
    <rect
       id="rect835-7-5"
       height="56.949772"
       width="146.40434"
       y="49.892857"
       x="27.970238" />
    <rect
       id="rect1894"
       height="56.949772"
       width="146.40434"
       y="49.892857"
       x="27.970238" />
    <linearGradient
       y2="86.781433"
       x2="57.571201"
       y1="52.731293"
       x1="57.234032"
       gradientUnits="userSpaceOnUse"
       id="linearGradient1773-0-3"
       xlink:href="#linearGradient1245"
       inkscape:collect="always" />
    <rect
       id="rect835-7-5-8-3"
       height="44.522907"
       width="65.62973"
       y="49.892857"
       x="27.970238" />
    <rect
       id="rect2217"
       height="44.522907"
       width="65.62973"
       y="49.892857"
       x="27.970238" />
    <linearGradient
       y2="26.235037"
       x2="106.54088"
       y1="25.941338"
       x1="82.989594"
       gradientUnits="userSpaceOnUse"
       id="linearGradient2365"
       xlink:href="#linearGradient1245"
       inkscape:collect="always" />
    <linearGradient
       y2="26.235037"
       x2="106.54088"
       y1="25.941338"
       x1="82.989594"
       gradientUnits="userSpaceOnUse"
       id="linearGradient2392"
       xlink:href="#linearGradient1245"
       inkscape:collect="always" />
    <rect
       id="rect835-7-5-4-4"
       height="29.044113"
       width="181.33752"
       y="49.892857"
       x="27.970238" />
    <rect
       id="rect2520"
       height="29.044113"
       width="181.33752"
       y="49.892857"
       x="27.970238" />
    <rect
       id="rect835-7-5-4"
       height="29.044113"
       width="181.33752"
       y="49.892857"
       x="27.970238" />
    <rect
       id="rect2697"
       height="29.044113"
       width="181.33752"
       y="49.892857"
       x="27.970238" />
    <rect
       id="rect835-7-5-4-1"
       height="29.044113"
       width="181.33752"
       y="49.892857"
       x="27.970238" />
    <rect
       id="rect2869"
       height="29.044113"
       width="181.33752"
       y="49.892857"
       x="27.970238" />
  </defs>
  <sodipodi:namedview
     inkscape:snap-to-guides="false"
     inkscape:snap-grids="false"
     inkscape:window-maximized="1"
     inkscape:window-y="-8"
     inkscape:window-x="-8"
     inkscape:window-height="1017"
     inkscape:window-width="1920"
     showgrid="false"
     inkscape:document-rotation="0"
     inkscape:current-layer="layer2"
     inkscape:document-units="mm"
     inkscape:cy="1038.1199"
     inkscape:cx="504.36387"
     inkscape:zoom="2"
     inkscape:pageshadow="2"
     inkscape:pageopacity="0"
     borderopacity="1.0"
     bordercolor="#666666"
     pagecolor="#ffffff"
     id="base" />
  <metadata
     id="metadata1025">
    <rdf:RDF>
      <cc:Work
         rdf:about="">
        <dc:format>image/svg+xml</dc:format>
        <dc:type
           rdf:resource="http://purl.org/dc/dcmitype/StillImage" />
        <dc:title></dc:title>
      </cc:Work>
    </rdf:RDF>
  </metadata>
  <g
     id="layer1"
     inkscape:groupmode="layer"
     inkscape:label="logo1" />
  <g
     inkscape:label="logo2"
     id="layer2"
     inkscape:groupmode="layer">
    <g
       id="g2390"
       style="fill:url(#linearGradient2392);fill-opacity:1;stroke-width:0.999838;stroke-miterlimit:4;stroke-dasharray:none"
       transform="matrix(1.3126561,0,0,1.3146957,-59.642621,163.18137)"
       inkscape:export-xdpi="223"
       inkscape:export-ydpi="223">
      <text
         xml:space="preserve"
         id="text833-74-6-6-9"
         style="font-style:normal;font-variant:normal;font-weight:normal;font-stretch:normal;font-size:10.4283px;line-height:1.35;font-family:'Aaux ProLight';-inkscape-font-specification:'Aaux ProLight, Normal';font-variant-ligatures:normal;font-variant-caps:normal;font-variant-numeric:normal;font-variant-east-asian:normal;white-space:pre;shape-inside:url(#rect835-7-5-8-3);fill:url(#linearGradient1773-0-3);fill-opacity:1;stroke:none;stroke-width:0.999838;stroke-miterlimit:4;stroke-dasharray:none;"
         transform="matrix(0.43811245,0,0,0.43743277,164.22816,66.40843)"><tspan
           x="27.970703"
           y="60.1954"><tspan
             style="font-style:normal;font-variant:normal;font-weight:normal;font-stretch:normal;font-size:10.4283px;font-family:'Aaux ProBold';-inkscape-font-specification:'Aaux ProBold, Normal';font-variant-ligatures:normal;font-variant-caps:normal;font-variant-numeric:normal;font-variant-east-asian:normal;fill:#c20e1a;fill-opacity:1">C</tspan><tspan
             style="fill:#000000;fill-opacity:1">onnaissance</tspan><tspan
             style="font-style:normal;font-variant:normal;font-weight:normal;font-stretch:normal;font-size:10.4283px;font-family:'Aaux ProLight';-inkscape-font-specification:'Aaux ProLight, Normal';font-variant-ligatures:normal;font-variant-caps:normal;font-variant-numeric:normal;font-variant-east-asian:normal;fill:url(#linearGradient1773-0-3)"> 
</tspan></tspan></text>
      <text
         xml:space="preserve"
         style="font-style:normal;font-variant:normal;font-weight:normal;font-stretch:normal;font-size:4.56522px;line-height:1.25;font-family:'Aaux ProLight';-inkscape-font-specification:'Aaux ProLight, Normal';font-variant-ligatures:normal;font-variant-caps:normal;font-variant-numeric:normal;font-variant-east-asian:normal;fill:#000000;fill-opacity:1;stroke:none;stroke-width:0.169977;stroke-miterlimit:4;stroke-dasharray:none"
         x="179.02531"
         y="97.766403"
         id="text2436-8"
         transform="scale(1.0007766,0.99922401)"><tspan
           sodipodi:role="line"
           id="tspan2434-8"
           x="179.02531"
           y="97.766403"
           style="font-style:normal;font-variant:normal;font-weight:normal;font-stretch:normal;font-size:4.56522px;font-family:'Aaux ProLight';-inkscape-font-specification:'Aaux ProLight, Normal';font-variant-ligatures:normal;font-variant-caps:normal;font-variant-numeric:normal;font-variant-east-asian:normal;fill:#c4006a;fill-opacity:1;stroke-width:0.169977"><tspan
             style="fill:#000000;fill-opacity:1"
             id="tspan942">du </tspan><tspan
             style="font-style:normal;font-variant:normal;font-weight:normal;font-stretch:normal;font-size:4.56522px;font-family:'Aaux ProBold';-inkscape-font-specification:'Aaux ProBold, Normal';font-variant-ligatures:normal;font-variant-caps:normal;font-variant-numeric:normal;font-variant-east-asian:normal;fill:#c20e1a;fill-opacity:1;stroke-width:0.169977"
             id="tspan2440-2">T</tspan><tspan
             style="fill:#000000;fill-opacity:1"
             id="tspan944">erritoire</tspan></tspan></text>
      <g
         id="g2138-9-6"
         style="fill:url(#linearGradient2365);fill-opacity:1;stroke-width:0.999838;stroke-miterlimit:4;stroke-dasharray:none"
         transform="matrix(0.77353738,0,0,0.77353738,94.849484,19.060496)">
        <path
           d="m 95.148516,97.895439 a 0.109876,0.1041835 0 1 1 -0.219752,0 v -2.687785 h -2.30739 v 5.142606 h 0.381512 v 0.20836 h -0.491389 a 0.10987578,0.10418329 0 0 1 -0.109875,-0.10418 v -5.302494 a 0.16405065,0.15555144 0 0 1 0.04731,-0.108524 0.16176157,0.15338096 0 0 1 0.114455,-0.04486 h 2.365381 v -2.170485 a 0.18999354,0.18015027 0 0 1 0.05647,-0.127335 v 0 a 0.19228262,0.18232076 0 0 1 0.136581,-0.05426 h 3.918137 a 0.19228262,0.18232076 0 0 1 0.136581,0.05353 l 0.0084,0.0087 a 0.19457169,0.18449124 0 0 1 0.04883,0.120824 v 2.170487 h 2.382173 a 0.16099854,0.15265746 0 0 1 0.11369,0.04486 v 0 a 0.16099854,0.15265746 0 0 1 0.0473,0.107801 v 5.302496 a 0.10987578,0.10418329 0 0 1 -0.10988,0.10418 H 100.9704 V 100.351 h 0.58754 v -5.143331 h -2.324938 v 2.657397 a 0.1098775,0.10418492 0 0 1 -0.219755,0 v -5.010203 h -3.864726 z m 0.486811,-4.330119 h 0.657728 a 0.01983869,0.01881088 0 0 1 0.01908,0.01737 v 0.621482 a 0.01983869,0.01881088 0 0 1 -0.01908,0.01737 h -0.657728 a 0.01754961,0.01664039 0 0 1 -0.01755,-0.01737 v -0.621484 a 0.01754961,0.01664039 0 0 1 0.01755,-0.01737 z m 2.232618,0 h 0.654676 a 0.01831264,0.01736389 0 0 1 0.01833,0.01737 v 0.621482 a 0.01831264,0.01736389 0 0 1 -0.01833,0.01737 h -0.637133 a 0.01907566,0.01808738 0 0 1 -0.01908,-0.01737 v -0.621484 a 0.01907566,0.01808738 0 0 1 0.01908,-0.01737 z m -1.126991,0 h 0.654675 a 0.01831264,0.01736389 0 0 1 0.01833,0.01737 v 0.621482 a 0.01831264,0.01736389 0 0 1 -0.01833,0.01737 h -0.654675 a 0.01907566,0.01808738 0 0 1 -0.01833,-0.01737 v -0.621484 a 0.01907566,0.01808738 0 0 1 0.01833,-0.01737 z m 3.0521,4.165885 h 1.249836 v 0.366089 h -1.246777 v -0.366089 z m -6.671899,0 h 1.25289 v 0.366089 h -1.249838 v -0.366089 z m 6.409417,2.246452 a 3.8151314,3.6174754 0 0 1 0.619588,0.263353 c 0.23729,0.14036 0.3052,0.30459 0.33497,0.51802 h -1.526059 v -0.2988 c 0.212879,0.026 0.621103,-0.0926 0.574553,-0.481849 z m -5.138978,0.04847 c 0.112928,0.31472 0.589819,0.33281 0.697406,0 a 0.35022906,0.33208424 0 0 0 0.102246,0.0557 0.88968863,0.84359525 0 0 0 -0.03892,0.0904 1.1582738,1.0982655 0 0 0 -0.05723,0.27276 v 0 a 0.02594289,0.02459883 0 0 1 0,0.007 l -0.02289,0.30676 H 93.5309 l 0.0206,-0.19751 a 0.47460233,0.45001393 0 0 1 0.08622,-0.2402 0.36930471,0.35017161 0 0 1 0.115215,-0.0926 c 0.138871,-0.0724 0.512755,-0.0969 0.638654,-0.20475 z m -0.09462,-0.765572 a 0.10148249,0.09622484 0 0 0 -0.04349,0.01157 0.03586223,0.03400427 0 0 0 -0.01297,0.01447 0.06562026,0.06222057 0 0 0 -0.0046,0.0246 0.24645748,0.2336889 0 0 0 0.05036,0.115036 v 0 l 0.10835,0.165679 a 0.92783987,0.87976993 0 0 0 0.143449,0.177257 0.2937651,0.27854559 0 0 0 0.202202,0.07741 0.29986933,0.28433357 0 0 0 0.214411,-0.08031 0.9537828,0.90436881 0 0 0 0.148026,-0.191726 L 95.224796,99.385 c 0.02442,-0.05282 0.03205,-0.08465 0.02442,-0.09984 -0.0076,-0.01519 -0.02518,-0.01157 -0.05799,-0.0094 a 0.09614131,0.09116038 0 0 1 -0.06639,-0.01084 l 0.06027,-0.17218 A 0.94615258,0.89713389 0 0 1 94.6312,98.948133 c -0.05876,-0.03545 -0.07631,-0.07669 -0.135819,-0.07235 a 0.19914986,0.18883221 0 0 0 -0.112164,0.05788 0.27926761,0.26479919 0 0 0 -0.06409,0.1201 l 0.03586,0.206921 a 0.0610421,0.05787961 0 0 1 -0.05722,0.0043 z M 95.25915,99.2092 a 0.09080013,0.08609592 0 0 1 0.05722,0.04341 0.21059525,0.19968464 0 0 1 -0.02289,0.161339 v 0 0.0043 l -0.122848,0.191725 a 1.0033795,0.95139601 0 0 1 -0.160996,0.206924 0.37083076,0.3516186 0 0 1 -0.265533,0.09984 0.35938536,0.34076617 0 0 1 -0.252562,-0.09622 0.95073065,0.90147478 0 0 1 -0.15642,-0.193897 L 94.225246,99.4639 a 0.32199709,0.30531492 0 0 1 -0.06257,-0.151934 0.12589933,0.11937668 0 0 1 0.01145,-0.05644 0.10911276,0.10345979 0 0 1 0.03967,-0.04341 0.10834973,0.1027363 0 0 1 0.02976,-0.01374 2.6324406,2.496058 0 0 1 -0.0046,-0.289398 0.45323761,0.42975608 0 0 1 0.01296,-0.06656 0.41127117,0.38996385 0 0 1 0.182364,-0.217049 0.53411841,0.50644657 0 0 1 0.09843,-0.0463 c 0.207543,-0.07235 0.482233,-0.03256 0.629497,0.118654 a 0.41508628,0.39358131 0 0 1 0.105298,0.251052 l -0.0084,0.259011 z m 1.085788,-0.723495 a 0.14115986,0.13384659 0 0 0 -0.05648,0.01664 0.05264881,0.04992116 0 0 0 -0.01908,0.02098 0.09766736,0.09260737 0 0 0 -0.0067,0.03617 0.38151314,0.36174754 0 0 0 0.07632,0.171468 v 0 0 l 0.160991,0.243094 a 1.3620019,1.2914387 0 0 0 0.214417,0.267694 0.4295838,0.40732773 0 0 0 0.305206,0.115036 0.44408129,0.42107413 0 0 0 0.318949,-0.120101 1.3963381,1.323996 0 0 0 0.220512,-0.289398 l 0.180837,-0.28215 c 0.03665,-0.07887 0.04733,-0.126612 0.03589,-0.1447 -0.01143,-0.01809 -0.03891,-0.01809 -0.09233,-0.01302 h -0.01681 a 0.17320697,0.16423338 0 0 1 -0.07632,-0.01664 l 0.08162,-0.257564 c -0.550909,-0.0065 -1.017114,-0.361748 -1.197187,-0.17581 -0.0427,0.04341 -0.07632,0.03472 -0.09614,0.111418 l 0.05724,0.311828 a 0.11140184,0.10563028 0 0 1 -0.09461,0 z m 0.152603,1.138058 c 0.220519,0.614357 0.84849,0.595547 1.041532,0 0.112929,0.0955 0.331154,0.144699 0.534115,0.194619 0.493684,0.117931 0.610428,0.258398 0.657734,0.745308 0.0051,0.0564 0.01143,0.1201 0.01757,0.19245 h -3.461845 l 0.02671,-0.33136 a 0.7004581,0.66416846 0 0 1 0.128952,-0.36175 0.54327466,0.51512845 0 0 1 0.172444,-0.138294 c 0.20678,-0.110694 0.691301,-0.144698 0.87977,-0.303867 z m 1.297145,-1.215473 a 0.13200355,0.12516465 0 0 1 0.08546,0.06512 c 0.02749,0.05282 0.01681,0.130229 -0.03438,0.240922 v 0 0.0065 l -0.183888,0.28942 a 1.4894273,1.4122624 0 0 1 -0.240356,0.308208 0.55090499,0.52236347 0 0 1 -0.396011,0.14904 0.53793353,0.51006403 0 0 1 -0.377696,-0.144699 1.4550911,1.3797051 0 0 1 -0.234246,-0.289397 l -0.161,-0.243095 a 0.47765445,0.45290792 0 0 1 -0.09309,-0.227177 0.19533472,0.18521474 0 0 1 0.01681,-0.08393 0.16633973,0.15772192 0 0 1 0.05951,-0.06511 0.19991288,0.18955571 0 0 1 0.04422,-0.02098 4.184436,3.9676469 0 0 1 -0.0067,-0.426138 0.63025967,0.59760691 0 0 1 0.01984,-0.09912 0.61042104,0.57879608 0 0 1 0.272399,-0.328467 0.70274719,0.66633896 0 0 1 0.146501,-0.06728 c 0.30903,-0.106354 0.719541,-0.04847 0.939287,0.177256 a 0.62720757,0.59471293 0 0 1 0.157949,0.374047 l -0.01143,0.386346 z m 0.553195,1.328338 h 0.141919 0.118275 c -0.137347,-0.40154 -0.09156,-0.770523 0.239584,-1.085243 a 0.74166149,0.70323717 0 0 0 0.396776,0.419627 2.0983222,1.9896114 0 0 1 0.297582,0.259735 c 0.01681,-0.06656 -0.04808,-0.144699 -0.126664,-0.230072 a 0.38151314,0.36174754 0 0 1 0.18694,0.173639 0.50741251,0.48112427 0 0 1 0.0359,0.311827 0.67604129,0.64101665 0 0 1 -0.04194,0.149763 h 0.196101 c 0.206777,-0.419627 0.07632,-1.042556 -0.347183,-1.306632 -0.129714,-0.08103 -0.222797,-0.07814 -0.375408,-0.07814 -0.173971,0 -0.263237,0.0051 -0.412797,0.09912 -0.219747,0.138186 -0.355564,0.37694 -0.412033,0.708301 -0.01143,0.165681 -0.01908,0.45146 0.103011,0.58386 z m 1.466534,-2.874447 h 1.213225 c 0.01,0 0.0183,0.0058 0.0183,0.01302 v 0.340043 c 0,0.0072 -0.008,0.01302 -0.0183,0.01302 h -1.213225 c -0.0099,0 -0.01833,-0.0058 -0.01833,-0.01302 V 96.8753 c 0,-0.0072 0.0084,-0.01302 0.01833,-0.01302 z m 0,-0.880492 h 1.213225 c 0.01,0 0.0183,0.0058 0.0183,0.01302 v 0.34151 c 0,0.0073 -0.008,0.01302 -0.0183,0.01302 h -1.213225 c -0.0099,0 -0.01833,-0.0058 -0.01833,-0.01302 V 95.9962 c 0,-0.0072 0.0084,-0.01302 0.01833,-0.01302 z m -6.6719,0.880493 h 1.213212 c 0.0099,0 0.01832,0.0058 0.01832,0.01302 v 0.340043 c 0,0.0073 -0.0084,0.01302 -0.01832,0.01302 H 93.14252 c -0.0099,0 -0.01832,-0.0058 -0.01832,-0.01302 v -0.34001 c 0,-0.0072 0.0084,-0.01302 0.01832,-0.01302 z m 0,-0.880492 h 1.213212 c 0.0099,0 0.01832,0.0058 0.01832,0.01302 v 0.34149 c 0,0.0072 -0.0084,0.01302 -0.01832,0.01302 H 93.14252 c -0.0099,0 -0.01832,-0.0058 -0.01832,-0.01302 v -0.34002 c 0,-0.0072 0.0084,-0.01302 0.01832,-0.01302 z m 4.730764,0.352341 h 0.647807 a 0.01831264,0.01736389 0 0 1 0.01833,0.01737 v 0.614247 a 0.01831264,0.01736389 0 0 1 -0.01833,0.01737 h -0.650859 a 0.01831264,0.01736389 0 0 1 -0.01833,-0.01737 v -0.61423 a 0.01831264,0.01736389 0 0 1 0.01833,-0.01737 z m -1.116309,0.0022 h 0.647808 a 0.01831264,0.01736389 0 0 1 0.01833,0.01737 v 0.612077 a 0.01831264,0.01736389 0 0 1 -0.01833,0.01737 H 96.75697 a 0.01831264,0.01736389 0 0 1 -0.01833,-0.01737 v -0.61424 a 0.01831264,0.01736389 0 0 1 0.01833,-0.01737 z m -1.113255,0 h 0.649335 a 0.01831264,0.01736389 0 0 1 0.01833,0.01737 v 0.612077 a 0.01831264,0.01736389 0 0 1 -0.01833,0.01737 h -0.64933 a 0.01831264,0.01736389 0 0 1 -0.01832,-0.0173 v -0.61424 a 0.01831264,0.01736389 0 0 1 0.01832,-0.01737 z m 2.226512,-1.467238 h 0.647807 a 0.01831264,0.01736389 0 0 1 0.01833,0.01737 v 0.614246 a 0.01831264,0.01736389 0 0 1 -0.01833,0.01737 h -0.647807 a 0.01831264,0.01736389 0 0 1 -0.01833,-0.01737 v -0.61134 a 0.01831264,0.01736389 0 0 1 0.01833,-0.01737 z m -1.113257,0 h 0.647808 a 0.01831264,0.01736389 0 0 1 0.01833,0.01737 V 95.50063 A 0.01831264,0.01736389 0 0 1 97.404778,95.518 H 96.75697 a 0.01831264,0.01736389 0 0 1 -0.01833,-0.01737 v -0.61134 a 0.01831264,0.01736389 0 0 1 0.01833,-0.01737 z m -1.113255,0 h 0.649335 a 0.01831264,0.01736389 0 0 1 0.01833,0.01737 V 95.50063 A 0.01831264,0.01736389 0 0 1 96.29305,95.518 H 95.64372 A 0.01831264,0.01736389 0 0 1 95.6254,95.5007 v -0.61135 a 0.01831264,0.01736389 0 0 1 0.01832,-0.01737 z"
           id="path910-6-2-7-4"
           style="fill:#00000f;fill-opacity:1;stroke-width:0.999839;stroke-miterlimit:4;stroke-dasharray:none" />
        <path
           d="m 97.099696,89.412664 c 2.019589,0 3.847734,0.818553 5.171224,2.142043 1.32348,1.323489 2.14203,3.151763 2.14203,5.171356 0,1.938766 -0.75436,3.700897 -1.98537,5.009707 0.0224,0.0165 0.0441,0.0348 0.0645,0.0551 l 3.14839,3.14111 c 0.22053,0.21932 0.22174,0.57623 0.002,0.79691 -0.21932,0.22068 -0.57622,0.22159 -0.79675,0.002 l -3.14839,-3.14112 c -0.0334,-0.0333 -0.0618,-0.0696 -0.0852,-0.10822 -1.24314,0.97581 -2.809864,1.55779 -4.51266,1.55779 -2.019596,0 -3.848017,-0.81855 -5.171508,-2.14204 -1.323337,-1.32349 -2.141892,-3.151915 -2.141892,-5.171509 0,-2.019591 0.818555,-3.847866 2.14204,-5.171355 1.323491,-1.323337 3.151919,-2.142042 5.171509,-2.142042 z m 4.353574,2.959839 c -1.11417,-1.114159 -2.653354,-1.8033 -4.353574,-1.8033 -1.700227,0 -3.239554,0.689141 -4.353714,1.8033 -1.11416,1.114159 -1.803296,2.653336 -1.803296,4.35356 0,1.700224 0.689136,3.239551 1.803296,4.353707 1.114011,1.11416 2.653338,1.8033 4.353714,1.8033 1.70022,0 3.239404,-0.68914 4.353574,-1.8033 1.11416,-1.114004 1.8033,-2.653333 1.8033,-4.353707 0,-1.700224 -0.68914,-3.239401 -1.8033,-4.35356 z"
           id="path933-0-4-0-8"
           style="fill:#c20e1a;fill-opacity:1;stroke-width:0.999838;stroke-miterlimit:4;stroke-dasharray:none"
           sodipodi:nodetypes="csscccccccscscccsssscscss" />
      </g>
    </g>
    <rect
       y="278.07709"
       x="154.51665"
       height="2.6458333"
       width="3.0427084"
       id="rect869"
       style="fill:#ffffff;fill-opacity:0.00335568;stroke-width:1.287"
       inkscape:export-xdpi="223"
       inkscape:export-ydpi="223" />
    <rect
       y="278.34167"
       x="203.06772"
       height="1.984375"
       width="3.2107861"
       id="rect871"
       style="fill:#ffffff;fill-opacity:0;stroke-width:1.287"
       inkscape:export-xdpi="223"
       inkscape:export-ydpi="223" />
    <rect
       style="opacity:0;fill:#ffffff;fill-opacity:0;fill-rule:evenodd;stroke-width:1.33771"
       id="rect903"
       width="1.3229166"
       height="3.1442773"
       x="173.03749"
       y="293.6875"
       inkscape:export-xdpi="223"
       inkscape:export-ydpi="223" />
  </g>
  <g
     inkscape:label="logo3"
     id="layer4"
     inkscape:groupmode="layer" />
  <g
     style="display:inline"
     inkscape:label="logo4"
     id="layer5"
     inkscape:groupmode="layer" />
</svg>
